<?xml version="1.0" encoding="UTF-8"?>
<svg width="511px" height="175px" viewBox="0 0 511 175" version="1.1" xmlns="http://www.w3.org/2000/svg" xmlns:xlink="http://www.w3.org/1999/xlink">
    <!-- Generator: Sketch 52.4 (67378) - http://www.bohemiancoding.com/sketch -->
    <title>bikesales</title>
    <desc>Created with Sketch.</desc>
    <g id="Page-1" stroke="none" stroke-width="1" fill="none" fill-rule="evenodd">
        <g id="bikesales" fill="#ED1C24">
            <g id="Group">
                <path d="M120.78,56.28 C133.84,62.76 143.54,67.15 155.72,70.6 C156.71,64.22 158.15,59.51 162.22,56.16 C170.18,49.6 202.49,64.22 210.38,66.02 C214.08,28.59 266.95,13.26 315.78,30.48 C328.41,-21.65 396.34,0.73 382.83,52.39 C368.33,47.58 354.07,38.48 351.89,45.58 C349.31,53.47 369.01,60.58 379.84,63.46 L376.75,77.27 C324.37,63.94 337.89,27.02 357.64,31.25 C362.77,32.17 365.19,33.05 371.96,35.14 C366.06,5.57 325.35,4.35 325.95,49.34 C273.36,27.31 211.7,44.77 227.3,92.05 C208.91,84.97 176.85,71.47 172.4,73.87 C169.56,75.4 168.67,87.46 168.19,92.95 C156.14,91.3 121.82,77.38 114,73.59 L120.78,56.28 Z" id="Path"></path>
                <path d="M429.72,93.5 C430.32,68.52 411.92,44.55 393.79,39.03 C393.79,39.03 394.72,47.53 393.61,54.22 C405.42,60.45 414.09,73.96 414.08,92.96 C414.09,92.97 423.64,91.95 429.72,93.5 Z" id="Path"></path>
                <path d="M84.43,83.84 C88.79,83.84 92.36,87.4 92.35,91.77 C92.35,96.14 88.78,99.69 84.42,99.69 C80.06,99.69 76.5,96.13 76.5,91.76 C76.5,87.39 80.07,83.84 84.43,83.84 Z" id="Path"></path>
                <path d="M0,172.56 L0.03,81.74 L12.79,81.74 L12.78,114.02 L13.03,114.02 C18.56,106.29 27.15,102.73 36.35,102.74 C54.39,102.75 71.57,117.6 71.56,138.59 C71.55,158.23 56.45,174.3 36.57,174.29 C30.31,174.29 19.88,172.07 12.89,162.75 L12.64,162.75 L12.64,172.57 L0,172.56 Z M35.59,162.64 C47.86,162.64 58.79,152.09 58.79,138.59 C58.79,125.83 48.98,114.41 35.6,114.4 C21.61,114.4 12.4,126.3 12.4,138.32 C12.4,153.67 24.18,162.63 35.59,162.64 Z" id="Shape" fill-rule="nonzero"></path>
                <polygon id="Path" points="90.79 172.59 78.03 172.59 78.05 104.6 90.81 104.6"></polygon>
                <polygon id="Path" points="152.76 104.62 128.08 136.64 156.66 172.61 140.71 172.6 113.48 137.37 113.23 137.37 113.22 172.59 100.46 172.59 100.49 83.69 113.25 83.69 113.23 137.37 113.48 137.37 137.67 104.61"></polygon>
                <path d="M341.75,172.68 L341.75,162.13 L341.51,162.13 C336.6,170.47 327.64,174.4 318.43,174.4 C295.48,174.39 282.35,156.84 282.36,138.92 C282.37,122.35 294.03,102.84 318.45,102.85 C327.9,102.85 336.61,106.78 341.52,114.27 L341.76,114.27 L341.76,104.7 L354.52,104.7 L354.5,172.69 L341.75,172.68 Z M318.46,114.5 C302.75,114.49 295.14,128.11 295.13,138.79 C295.13,151.06 304.82,162.73 318.32,162.73 C331.7,162.73 342.01,151.81 342.01,138.81 C342.02,124.32 331.59,114.5 318.46,114.5 Z" id="Shape" fill-rule="nonzero"></path>
                <polygon id="Path" points="376.59 172.69 363.83 172.69 363.86 83.97 376.62 83.97"></polygon>
                <path d="M475.29,122.09 C475.41,119.31 477.71,113.8 485.95,113.8 C494.21,113.8 496.92,120.82 497.27,123.09 L509.65,123.1 C509.65,117.82 504.2,102.86 486.05,102.85 C467.9,102.84 463.7,115.64 463.43,121.61 C462.44,143.67 498.99,139.77 498.34,154.12 C498.22,156.79 495.66,163.17 485.11,163.17 C474.8,163.17 471.53,154.66 471.29,151.25 L459.08,151.25 C459.74,157.91 464.53,174.31 485.28,174.32 C505.93,174.33 509.96,159.67 510.21,154.22 C511.25,131.19 474.82,132.6 475.29,122.09 Z" id="Path"></path>
                <path d="M242.18,122.01 C242.31,119.23 244.6,113.72 252.84,113.72 C261.1,113.72 263.81,120.74 264.16,123.01 L276.54,123.02 C276.54,117.74 271.09,102.78 252.94,102.77 C234.79,102.76 230.59,115.56 230.32,121.53 C229.33,143.59 265.88,139.69 265.23,154.04 C265.11,156.71 262.55,163.09 252,163.09 C241.69,163.09 238.42,154.58 238.18,151.17 L225.97,151.17 C226.63,157.83 231.42,174.23 252.17,174.24 C272.82,174.25 276.85,159.59 277.1,154.14 C278.14,131.12 241.71,132.52 242.18,122.01 Z" id="Path"></path>
            </g>
            <g id="Group" transform="translate(150.000000, 103.000000)" fill-rule="nonzero">
                <path d="M248.24,41.47 C251.43,54.61 261.98,60.01 270.58,60.01 C280.02,60.01 286.9,54.49 289.97,48.6 L302.74,48.6 C296.23,66.15 280.63,71.67 270.09,71.67 C250.82,71.66 235.48,55.09 235.48,35.81 C235.49,15.43 251.21,0.09 270.36,0.1 C288.77,0.11 304.84,15.09 304.96,34.98 C304.96,37.19 304.71,40.63 304.59,41.49 L248.24,41.47 Z M292.19,31.66 C291.58,21.72 282.5,11.77 270.23,11.76 C257.95,11.76 248.87,21.7 248.25,31.64 L292.19,31.66 Z" id="Shape"></path>
                <path d="M13.66,41.47 C16.85,54.61 27.4,60.01 36,60.01 C45.44,60.01 52.32,54.49 55.39,48.6 L68.16,48.6 C61.65,66.15 46.05,71.67 35.51,71.67 C16.24,71.66 0.9,55.09 0.9,35.81 C0.91,15.43 16.63,0.09 35.78,0.1 C54.19,0.11 70.26,15.09 70.38,34.98 C70.38,37.19 70.13,40.63 70.01,41.49 L13.66,41.47 Z M57.6,31.66 C56.99,21.72 47.91,11.77 35.64,11.76 C23.36,11.76 14.28,21.7 13.66,31.64 L57.6,31.66 Z" id="Shape"></path>
            </g>
        </g>
    </g>
</svg>